<svg xmlns="http://www.w3.org/2000/svg" xmlns:xlink="http://www.w3.org/1999/xlink" version="1.1" x="0px" y="0px" viewBox="0 0 500 250" style="enable-background:new 0 0 500 250;" xml:space="preserve">
    <g id="BACKGROUND">
        <rect style="fill:#FFFFFF;" width="500" height="250"/>
    </g>
    <g id="OBJECTS" style="transform: translateX(-75px);transform: translate(-75px, -137px);">
        <text transform="matrix(1 0 0 1 138.7285 380.041)"><tspan x="0" y="0" style="fill:#1F4A99; font-family:'Raleway-Regular'; font-size:36.2884px; letter-spacing:3;">SPORT </tspan><tspan x="148.708" y="0" style="fill:#1F4A99; font-family:'Raleway-Bold'; font-size:36.2884px; letter-spacing:3;">PLATAFORM</tspan></text>
        <g>
            <linearGradient id="SVGID_1_" gradientUnits="userSpaceOnUse" x1="237.7329" y1="163.4664" x2="281.8262" y2="163.4664">
                <stop offset="0" style="stop-color:#1F4A99"/>
                <stop offset="1" style="stop-color:#2492CD"/>
            </linearGradient>
            <path style="fill:url(#SVGID_1_);" d="M281.826,163.466c0,12.176-9.87,22.047-22.047,22.047c-12.176,0-22.046-9.871-22.046-22.047    c0-12.176,9.871-22.047,22.046-22.047C271.956,141.419,281.826,151.29,281.826,163.466z"/>
            <g>
                
                    <linearGradient id="SVGID_00000008140013002649290570000001900408500490306438_" gradientUnits="userSpaceOnUse" x1="130.7158" y1="288.1612" x2="263.7488" y2="288.1612">
                    <stop offset="0" style="stop-color:#34D4EA"/>
                    <stop offset="1" style="stop-color:#AAF7F9"/>
                </linearGradient>
                <path style="fill:url(#SVGID_00000008140013002649290570000001900408500490306438_);" d="M263.099,251.27     c1.154,8.136,0.755,16.584-1.065,24.845c-0.177,1.049-0.521,2.049-0.793,3.075c-0.296,1.019-0.558,2.054-0.887,3.066l-1.093,3.01     l-0.56,1.507l-0.657,1.468l-1.332,2.943c-0.496,0.955-1.031,1.893-1.55,2.843c-0.992,1.931-2.254,3.706-3.452,5.528     c-0.61,0.904-1.323,1.735-1.984,2.606c-0.686,0.854-1.318,1.755-2.085,2.543c-0.736,0.815-1.494,1.613-2.246,2.419     c-0.367,0.412-0.764,0.794-1.177,1.159l-1.221,1.119c-3.203,3.06-6.914,5.554-10.73,7.835c-3.893,2.163-8,3.948-12.276,5.252     c-4.276,1.301-8.706,2.094-13.152,2.421c-4.45,0.293-8.914,0.127-13.299-0.457c-4.376-0.641-8.693-1.618-12.829-3.07     c-4.131-1.455-8.132-3.219-11.908-5.349c-0.936-0.547-1.894-1.052-2.805-1.635l-2.731-1.739c-1.76-1.248-3.516-2.489-5.18-3.845     c-13.393-10.729-23.061-25.493-27.37-41.355c2.255,3.442,4.57,6.771,7.004,9.966c2.483,3.164,5.055,6.205,7.777,9.069     c2.743,2.848,5.615,5.524,8.597,8.027c2.99,2.497,6.139,4.757,9.367,6.837c6.46,4.163,13.426,7.353,20.608,9.457     c3.593,1.051,7.251,1.79,10.925,2.184c3.668,0.433,7.358,0.526,11.008,0.255c3.656-0.216,7.272-0.851,10.788-1.838     c0.895-0.193,1.748-0.528,2.625-0.786c0.88-0.252,1.731-0.59,2.584-0.923l1.283-0.491c0.423-0.177,0.83-0.387,1.246-0.578     c0.826-0.396,1.667-0.765,2.503-1.146c6.548-3.314,12.464-7.948,17.468-13.586c1.163-1.479,2.489-2.851,3.546-4.435     c0.553-0.773,1.128-1.537,1.672-2.323l1.537-2.431l0.777-1.219l0.69-1.27l1.398-2.548c0.449-0.86,0.837-1.752,1.263-2.632     c0.406-0.886,0.862-1.758,1.205-2.675C259.647,267.144,261.717,259.372,263.099,251.27z"/>
                
                    <linearGradient id="SVGID_00000173881329703645842000000000346508560725938358_" gradientUnits="userSpaceOnUse" x1="111.1796" y1="227.2244" x2="247.2344" y2="227.2244">
                    <stop offset="0" style="stop-color:#34D4EA"/>
                    <stop offset="1" style="stop-color:#AAF7F9"/>
                </linearGradient>
                <path style="fill:url(#SVGID_00000173881329703645842000000000346508560725938358_);" d="M123.022,283.396     c-10.132-16.895-14.345-38.063-10.348-58.447c1.993-10.16,6.111-20.099,12.443-28.672c3.148-4.292,6.889-8.185,11.045-11.593     c4.178-3.384,8.823-6.213,13.735-8.42c4.934-2.158,10.156-3.677,15.469-4.505c5.319-0.784,10.715-0.923,16.011-0.375     c10.602,1.09,20.733,4.715,29.589,10.086c17.775,10.756,30.601,28.126,36.269,46.994c-5.148-8.413-11.053-16.12-17.894-22.729     c-6.816-6.612-14.495-12.167-22.792-16.205c-8.285-4.031-17.17-6.58-26.087-7.096c-4.451-0.259-8.902-0.062-13.24,0.72     c-4.344,0.732-8.581,2.006-12.599,3.797c-4.034,1.759-7.819,4.048-11.292,6.758c-3.499,2.682-6.634,5.848-9.446,9.31     c-5.614,6.947-9.722,15.231-12.308,24.078c-2.597,8.856-3.654,18.277-3.346,27.77     C118.522,264.376,120.253,273.931,123.022,283.396z"/>
            </g>
            <g>
                
                    <linearGradient id="SVGID_00000075130558483192221400000017552253963168326330_" gradientUnits="userSpaceOnUse" x1="222.0272" y1="181.9814" x2="376.3721" y2="305.3309">
                    <stop offset="0" style="stop-color:#1F4A99"/>
                    <stop offset="1" style="stop-color:#2492CD"/>
                </linearGradient>
                <path style="fill:url(#SVGID_00000075130558483192221400000017552253963168326330_);" d="M264.658,225.46     c-11.247,11.633-29.845,12.447-46.339,11.748c-16.494-0.7-34.581-1.671-47.785,7.868c15.863-6.488,33.961-2.847,50.917,0.131     c16.956,2.979,35.843,4.836,50.172-4.384c14.237-9.159,19.67-26.413,24.801-42.137c5.02-15.386,11.858-31.647,27.509-39.508     c-14.344,1.837-28.078,9.005-35.236,21.154C280.38,194.446,276.175,213.548,264.658,225.46z"/>
                
                    <linearGradient id="SVGID_00000178905756310030394650000008719988186512994944_" gradientUnits="userSpaceOnUse" x1="249.9464" y1="153.5723" x2="404.2979" y2="276.9272" gradientTransform="matrix(0.9769 0.2135 -0.2135 0.9769 52.4992 -82.465)">
                    <stop offset="0" style="stop-color:#1F4A99"/>
                    <stop offset="1" style="stop-color:#2492CD"/>
                </linearGradient>
                <path style="fill:url(#SVGID_00000178905756310030394650000008719988186512994944_);" d="M304.212,222.65     c-3.567,6.044-5.721,13.191-4.569,20.114c1.077,6.491,4.97,12.253,9.802,16.719c4.832,4.466,10.59,7.787,16.332,10.999     c20.551,11.5,41.591,22.125,63.044,31.838c-22.159-13.551-44.524-27.438-62.352-46.327c-2.12-2.246-4.19-4.583-5.676-7.29     c-5.878-10.698-1.332-24.162,5.209-34.468c5.922-9.334,13.375-17.593,21.435-25.122c3.489-3.259,6.454-7.012,10.509-9.511     c4.48-2.762,9.543-6.121,14.59-7.72c-14.262,4.518-27.893,10.99-39.911,19.959C322.106,199.692,310.862,211.384,304.212,222.65z"/>
            </g>
        </g>
    </g>
</svg>